<svg xmlns="http://www.w3.org/2000/svg" width="42" height="42" viewBox="0 0 42 42" fill="none">
  <path d="M0 24.3271C0 34.0859 7.91412 42 17.6729 42C27.4318 42 35.3459 34.0859 35.3459 24.3271C35.3459 14.5682 27.4318 6.65412 17.6729 6.65412C7.91412 6.65412 0 14.5682 0 24.3271Z" fill="#FAB414"/>
  <path d="M31.6894 5.15529C31.6894 8.00471 33.9953 10.3106 36.8447 10.3106C39.6941 10.3106 42 8.00471 42 5.15529C42 2.30588 39.6941 0 36.8447 0C33.9953 0 31.6894 2.30588 31.6894 5.15529Z" fill="#FAB414"/>
  <path d="M5.97066 28.4941L9.45419 24.3682L6.27537 20.7035C5.8389 20.1929 5.64125 19.74 5.64125 19.2294C5.64125 18.1341 6.45654 17.4506 7.42007 17.4506C8.18595 17.4506 8.72125 17.8047 9.2236 18.4471L11.7436 21.8071L14.313 18.4471C14.7742 17.8871 15.3095 17.4506 15.993 17.4506C17.0142 17.4506 17.7965 18.1671 17.7965 19.1306C17.7965 19.6659 17.566 20.0694 17.2612 20.4565L13.9507 24.3271L17.3601 28.2471C17.7883 28.7576 17.9942 29.2106 17.9942 29.7212C17.9942 30.8165 17.1789 31.5 16.2154 31.5C15.4495 31.5 14.9142 31.1459 14.4118 30.5035L11.6612 26.8882L8.91066 30.5035C8.44948 31.0635 7.91419 31.5 7.23066 31.5C6.20948 31.5 5.42713 30.7835 5.42713 29.82C5.42713 29.2847 5.63301 28.8812 5.96243 28.4941H5.97066Z" fill="white"/>
  <path d="M24.8706 31.5988C20.7777 31.5988 17.7471 28.7247 17.7471 24.5494V24.5C17.7471 20.6047 20.5224 17.4012 24.4918 17.4012C29.0459 17.4012 31.0553 21.14 31.0553 23.9647C31.0553 25.0847 30.2647 25.8259 29.2518 25.8259H21.593C21.9718 27.58 23.1989 28.4941 24.9283 28.4941C25.9989 28.4941 26.8883 28.1647 27.6789 27.58C27.9589 27.3741 28.2142 27.2753 28.6177 27.2753C29.4824 27.2753 30.1165 27.9341 30.1165 28.7988C30.1165 29.3094 29.8859 29.6882 29.6059 29.9435C28.4118 30.9647 26.8553 31.5988 24.8706 31.5988ZM27.3659 23.4047C27.1353 21.6753 26.1224 20.5059 24.4918 20.5059C22.8612 20.5059 21.8483 21.6506 21.5436 23.4047H27.3742H27.3659Z" fill="white"/>
</svg>
